#!OML:ASF E:\Steps\Project 1\Capture day 1\Session 2\Subject.ASF
:FULLY-SPECIFIED
:DEGREES
345
root 8.95334 16.1648 23.3718 -157.676 3.88803 176.504
lowerback -28.8936 -3.3062 -3.58433
upperback -4.46364 -1.94865 -0.6024
thorax 11.074 -0.53218 0.750305
lowerneck 1.16711 1.14401 -2.47541
upperneck -4.84243 1.78719 4.75551
head -1.79519 0.885699 1.89821
rclavicle -3.84621e-015 -6.75868e-015
rhumerus -42.0604 -21.2421 -74.9396
rradius 27.0774
rwrist 6.70615
rhand -7.55219 -53.8585
rfingers 7.12502
rthumb 18.3397 276.986
lclavicle -3.84621e-015 -6.75868e-015
lhumerus -37.8166 8.69909 80.5886
lradius 21.5998
lwrist -6.75443
lhand -21.2993 -11.2604
lfingers 7.12502
lthumb 5.0854 18.6586
rfemur -29.8488 7.11222 15.9493
rtibia 31.9756
rfoot -26.9613 -5.0555
rtoes -27.0035
lfemur -31.1626 -8.0899 -23.4238
ltibia 35.737
lfoot -13.3528 -0.148439
ltoes -37.3735
346
root 8.94918 16.1821 23.3532 -157.802 4.04908 176.448
lowerback -28.6717 -3.24615 -3.72383
upperback -4.37433 -1.85717 -0.667483
thorax 11.063 -0.507257 0.792582
lowerneck 1.12473 1.00248 -2.41706
upperneck -5.21886 1.62769 4.75864
head -1.90238 0.808611 1.89426
rclavicle -7.45831e-015 -9.14409e-015
rhumerus -42.2873 -21.1022 -75.0282
rradius 27.6325
rwrist 5.20206
rhand -7.6415 -54.4628
rfingers 7.12502
rthumb 18.2538 276.374
lclavicle -7.45831e-015 -9.14409e-015
lhumerus -37.7826 8.33462 80.8451
lradius 21.9749
lwrist -6.70847
lhand -22.942 -11.2154
lfingers 7.12502
lthumb 3.49909 18.7356
rfemur -29.0607 7.32612 15.8201
rtibia 30.8266
rfoot -26.5949 -5.11299
rtoes -25.3741
lfemur -30.4221 -8.09916 -23.5932
ltibia 34.7194
lfoot -13.4438 0.197244
ltoes -37.6623
347
root 8.94503 16.1959 23.337 -157.903 4.20817 176.409
lowerback -28.4914 -3.20187 -3.86749
upperback -4.3002 -1.78146 -0.709728
thorax 11.0566 -0.487959 0.856688
lowerneck 1.26304 0.85157 -2.47178
upperneck -5.63096 1.45314 4.83329
head -2.05633 0.7215 1.93528
rclavicle -1.35492e-014 -8.94531e-016
rhumerus -42.5036 -20.4505 -75.3356
rradius 28.3157
rwrist 2.98235
rhand -7.76595 -55.1781
rfingers 7.12502
rthumb 18.134 275.647
lclavicle -1.35492e-014 -8.94531e-016
lhumerus -37.6907 7.71017 81.3145
lradius 22.246
lwrist -5.48578
lhand -22.9962 -13.2472
lfingers 7.12502
lthumb 3.44673 16.7047
rfemur -28.519 7.30102 15.7756
rtibia 30.0021
rfoot -26.2975 -5.1408
rtoes -24.5069
lfemur -29.7813 -8.08046 -23.7816
ltibia 33.8674
lfoot -13.6117 0.70772
ltoes -39.2996
348
root 8.93975 16.2046 23.317 -157.968 4.39368 176.497
lowerback -28.3997 -3.1064 -3.87262
upperback -4.1931 -1.68355 -0.731194
thorax 11.1279 -0.456736 0.870185
lowerneck 1.16895 0.78797 -2.46164
upperneck -5.72196 1.37637 4.80817
head -2.06542 0.686183 1.9274
rclavicle 1.16444e-014 2.0773e-014
rhumerus -42.5654 -19.9593 -75.5862
rradius 28.8282
rwrist 0.8976
rhand -7.31232 -55.029
rfingers 7.12502
rthumb 18.5704 275.837
lclavicle 1.16444e-014 2.0773e-014
lhumerus -37.5309 7.05028 81.7983
lradius 22.564
lwrist -4.21712
lhand -22.9059 -13.8763
lfingers 7.12502
lthumb 3.53398 16.0742
rfemur -28.0968 7.16501 15.8935
rtibia 29.38
rfoot -26.0479 -5.11928
rtoes -25.6138
lfemur -29.1305 -8.14317 -23.8318
ltibia 33.0315
lfoot -13.7655 1.35127
ltoes -39.9258
349
root 8.93607 16.2085 23.3009 -157.857 4.51223 176.677
lowerback -28.4781 -3.02411 -3.81187
upperback -4.11357 -1.60709 -0.709779
thorax 11.2549 -0.428394 0.88447
lowerneck 0.988195 0.769707 -2.42651
upperneck -5.71472 1.35527 4.75201
head -2.02834 0.679799 1.90269
rclavicle -1.28589e-014 -1.51076e-014
rhumerus -42.5642 -19.8006 -75.6697
rradius 29.1344
rwrist -0.557515
rhand -6.16271 -54.6278
rfingers 7.12502
rthumb 19.6759 276.348
lclavicle -1.28589e-014 -1.51076e-014
lhumerus -37.3777 6.50956 82.2044
lradius 22.9324
lwrist -3.58821
lhand -22.8926 -13.8262
lfingers 7.12502
lthumb 3.54678 16.124
rfemur -27.8778 7.09474 16.12
rtibia 28.8285
rfoot -25.9248 -5.16147
rtoes -26.6106
lfemur -28.7183 -8.19001 -23.7288
ltibia 32.2247
lfoot -13.8432 1.80698
ltoes -39.2054
350
root 8.93495 16.2104 23.2925 -157.638 4.63556 176.757
lowerback -28.7762 -2.99066 -3.86958
upperback -3.93558 -1.54646 -0.719412
thorax 11.6124 -0.418 0.919905
lowerneck 0.863241 0.682819 -2.37774
upperneck -6.01998 1.26831 4.74415
head -2.10136 0.641563 1.89524
rclavicle 6.93262e-015 -1.98785e-014
rhumerus -42.2956 -20.0261 -75.6705
rradius 29.3111
rwrist -0.849049
rhand -5.49769 -54.9006
rfingers 7.12502
rthumb 20.3152 276.142
lclavicle 6.93262e-015 -1.98785e-014
lhumerus -36.8663 6.00743 82.5657
lradius 23.0976
lwrist -3.41496
lhand -23.1454 -13.3643
lfingers 7.12502
lthumb 3.30265 16.5898
rfemur -27.7952 7.15871 16.1964
rtibia 28.2996
rfoot -25.96 -5.26192
rtoes -26.5402
lfemur -28.5485 -8.10769 -23.7346
ltibia 31.4921
lfoot -13.852 2.14943
ltoes -39.1705
351
root 8.92976 16.2172 23.2725 -157.866 4.86415 176.718
lowerback -29.0116 -2.90465 -3.95631
upperback -3.46761 -1.4471 -0.833588
thorax 12.2724 -0.420241 0.859998
lowerneck 0.900344 0.463715 -2.24753
upperneck -6.74982 1.04093 4.78884
head -2.33804 0.532492 1.89781
rclavicle 2.85753e-016 -1.78906e-014
rhumerus -41.6521 -20.4278 -75.7683
rradius 29.3824
rwrist -0.577037
rhand -5.24849 -55.1027
rfingers 7.12502
rthumb 20.5546 275.965
lclavicle 2.85753e-016 -1.78906e-014
lhumerus -36.0112 5.76081 82.6732
lradius 23.119
lwrist -3.66176
lhand -22.8817 -12.6903
lfingers 7.12502
lthumb 3.55731 17.2598
rfemur -27.1208 7.22107 16.1179
rtibia 27.6275
rfoot -25.9396 -5.26386
rtoes -26.9075
lfemur -27.7347 -8.13772 -23.9566
ltibia 30.5815
lfoot -13.8568 2.44613
ltoes -38.5402
352
root 8.92872 16.2186 23.2639 -157.776 4.95783 176.725
lowerback -29.3427 -2.93504 -4.01504
upperback -3.22044 -1.46508 -0.893855
thorax 12.7343 -0.450237 0.804633
lowerneck 1.01245 0.330412 -2.16977
upperneck -7.19192 0.904172 4.85455
head -2.49969 0.464385 1.91343
rclavicle 2.36057e-014 1.37161e-014
rhumerus -41.1358 -20.4792 -75.9735
rradius 29.3756
rwrist -0.619281
rhand -4.99252 -54.8308
rfingers 7.12502
rthumb 20.8006 276.264
lclavicle 2.36057e-014 1.37161e-014
lhumerus -35.4288 5.4554 82.7823
lradius 23.2063
lwrist -3.28115
lhand -22.0613 -12.084
lfingers 7.12502
lthumb 4.34958 17.8513
rfemur -26.9985 7.29829 16.0898
rtibia 27.2522
rfoot -25.9208 -5.30815
rtoes -27.4354
lfemur -27.4546 -8.24549 -23.9806
ltibia 29.9646
lfoot -13.9002 2.4568
ltoes -36.3562
353
root 8.92753 16.2182 23.2526 -157.687 5.01314 176.891
lowerback -29.3621 -2.96288 -4.02244
upperback -3.23506 -1.50869 -0.817803
thorax 12.7315 -0.472483 0.879211
lowerneck 1.46145 0.28709 -2.26098
upperneck -7.55697 0.857657 4.89386
head -2.70415 0.435674 1.95029
rclavicle 5.55355e-015 -6.55989e-015
rhumerus -41.0122 -20.1401 -76.0276
rradius 29.2872
rwrist -0.722132
rhand -5.06228 -54.9432
rfingers 7.12502
rthumb 20.7336 276.144
lclavicle 5.55355e-015 -6.55989e-015
lhumerus -35.3 5.18585 83.0324
lradius 23.2519
lwrist -2.81003
lhand -21.443 -12.0221
lfingers 7.12502
lthumb 4.94659 17.9002
rfemur -26.9029 7.46167 16.2282
rtibia 26.968
rfoot -25.9627 -5.28032
rtoes -27.2033
lfemur -27.2126 -8.38536 -23.8107
ltibia 29.451
lfoot -14.0458 2.60458
ltoes -34.817
354
root 8.92472 16.2156 23.2403 -157.676 5.05962 177.028
lowerback -29.0822 -2.99265 -4.08988
upperback -3.38245 -1.54575 -0.724846
thorax 12.42 -0.485098 1.01928
lowerneck 1.71917 0.293186 -2.39306
upperneck -7.48122 0.848973 4.98184
head -2.72881 0.424933 2.00439
rclavicle -6.75868e-015 -2.3059e-014
rhumerus -41.0879 -19.5605 -76.0849
rradius 29.2717
rwrist -0.904486
rhand -5.53558 -55.5851
rfingers 7.12502
rthumb 20.2787 275.454
lclavicle -6.75868e-015 -2.3059e-014
lhumerus -35.3383 5.25674 83.1061
lradius 23.1535
lwrist -3.25092
lhand -22.316 -12.9259
lfingers 7.12502
lthumb 4.10366 17.0143
rfemur -26.7067 7.55941 16.3336
rtibia 26.6283
rfoot -25.8425 -5.02032
rtoes -26.1397
lfemur -26.8818 -8.60495 -23.6881
ltibia 28.9922
lfoot -14.3341 2.91111
ltoes -34.4298
355
root 8.92586 16.2111 23.2394 -157.517 5.11205 177.071
lowerback -29.2452 -3.02414 -4.23886
upperback -3.1138 -1.56771 -0.713526
thorax 12.8256 -0.529632 1.09855
lowerneck 1.37043 0.177163 -2.40706
upperneck -7.82497 0.739994 5.00818
head -2.77542 0.384153 2.02039
rclavicle 4.89507e-015 1.05356e-014
rhumerus -40.204 -19.2542 -76.5902
rradius 29.2031
rwrist -1.05432
rhand -6.10399 -55.3871
rfingers 7.12502
rthumb 19.7324 275.594
lclavicle 4.89507e-015 1.05356e-014
lhumerus -34.3275 5.32649 83.1415
lradius 22.8292
lwrist -3.77148
lhand -21.5104 -13.0014
lfingers 7.12502
lthumb 4.88156 16.9224
rfemur -26.7922 7.69735 16.3658
rtibia 26.4357
rfoot -25.6998 -4.83735
rtoes -25.0493
lfemur -26.8269 -8.63875 -23.6374
ltibia 28.6373
lfoot -14.563 3.07238
ltoes -34.5516
